<?xml version="1.0" encoding="UTF-8" standalone="no"?><!DOCTYPE svg PUBLIC "-//W3C//DTD SVG 1.1//EN" "http://www.w3.org/Graphics/SVG/1.1/DTD/svg11.dtd"><svg width="100%" height="100%" viewBox="0 0 188 180" version="1.1" xmlns="http://www.w3.org/2000/svg" xmlns:xlink="http://www.w3.org/1999/xlink" xml:space="preserve" xmlns:serif="http://www.serif.com/" style="fill-rule:evenodd;clip-rule:evenodd;stroke-linecap:round;stroke-linejoin:round;stroke-miterlimit:1.5;"><rect id="Breakout-V2" serif:id="Breakout V2" x="-144.904" y="-269.014" width="504.609" height="469.771" style="fill:none;"/><rect x="46.58" y="67.123" width="99.213" height="73.701" style="fill:#404040;"/><circle cx="140.496" cy="116.245" r="2.702"/><path d="M140.496,113.543c1.491,0 2.702,1.211 2.702,2.702c0,1.491 -1.211,2.702 -2.702,2.702c-1.491,0 -2.702,-1.211 -2.702,-2.702c-0,-1.491 1.211,-2.702 2.702,-2.702Zm-0,4c0.716,0 1.298,-0.581 1.298,-1.298c-0,-0.716 -0.582,-1.298 -1.298,-1.298c-0.716,0 -1.298,0.582 -1.298,1.298c0,0.717 0.582,1.298 1.298,1.298Z" style="fill:#a3a3a3;"/><circle cx="140.496" cy="122.611" r="2.702"/><path d="M140.496,119.909c1.491,0 2.702,1.211 2.702,2.702c0,1.492 -1.211,2.702 -2.702,2.702c-1.491,0 -2.702,-1.21 -2.702,-2.702c-0,-1.491 1.211,-2.702 2.702,-2.702Zm-0,4c0.716,0 1.298,-0.581 1.298,-1.298c-0,-0.716 -0.582,-1.298 -1.298,-1.298c-0.716,0 -1.298,0.582 -1.298,1.298c0,0.717 0.582,1.298 1.298,1.298Z" style="fill:#a3a3a3;"/><circle cx="51.243" cy="136.367" r="2.702"/><path d="M51.243,133.665c1.492,-0 2.702,1.21 2.702,2.702c0,1.491 -1.21,2.702 -2.702,2.702c-1.491,-0 -2.702,-1.211 -2.702,-2.702c0,-1.492 1.211,-2.702 2.702,-2.702Zm0,4c0.717,-0 1.298,-0.582 1.298,-1.298c0,-0.717 -0.581,-1.298 -1.298,-1.298c-0.716,-0 -1.298,0.581 -1.298,1.298c0,0.716 0.582,1.298 1.298,1.298Z" style="fill:#a3a3a3;"/><rect x="81.97" y="72.807" width="30.893" height="14.213"/><rect x="76.74" y="98.857" width="39.388" height="37.586" style="fill:#c1c1c1;stroke:#a3a3a3;stroke-width:0.85px;"/><path d="M143.168,130.764c-0.254,1.229 -1.343,2.154 -2.647,2.154c-1.491,0 -2.702,-1.21 -2.702,-2.702c0,-1.491 1.211,-2.702 2.702,-2.702c1.304,0 2.393,0.926 2.647,2.155l21.554,0l0,-0.872c0,-0.783 0.636,-1.419 1.419,-1.419l10.54,0c0.784,0 1.419,0.636 1.419,1.419l0,2.838c0,0.784 -0.635,1.419 -1.419,1.419l-10.54,0c-0.783,0 -1.419,-0.635 -1.419,-1.419l0,-0.871l-21.554,-0Z" style="fill:#f00;"/><path d="M143.687,131.464c-0.498,1.261 -1.728,2.154 -3.166,2.154c-1.877,0 -3.402,-1.524 -3.402,-3.402c0,-1.877 1.525,-3.402 3.402,-3.402c1.438,0 2.668,0.894 3.166,2.155c-0,0 20.335,0 20.335,0l0,-0.172c0,-1.169 0.95,-2.119 2.119,-2.119l10.54,0c1.17,0 2.119,0.95 2.119,2.119l0,2.838c0,1.17 -0.949,2.119 -2.119,2.119l-10.54,0c-1.169,0 -2.119,-0.949 -2.119,-2.119c0,0 0,-0.171 0,-0.171l-20.335,-0Zm-0.519,-0.7l21.554,-0l0,0.871c0,0.784 0.636,1.419 1.419,1.419l10.54,0c0.784,0 1.419,-0.635 1.419,-1.419l0,-2.838c0,-0.783 -0.635,-1.419 -1.419,-1.419l-10.54,0c-0.783,0 -1.419,0.636 -1.419,1.419l0,0.872l-21.554,0c-0.254,-1.229 -1.343,-2.155 -2.647,-2.155c-1.491,0 -2.702,1.211 -2.702,2.702c0,1.492 1.211,2.702 2.702,2.702c1.304,0 2.393,-0.925 2.647,-2.154Z" style="fill:#0ece00;"/><path d="M164.722,138.265c0,0.784 0.636,1.419 1.419,1.419l10.54,0c0.784,0 1.419,-0.635 1.419,-1.419l0,-2.838c0,-0.783 -0.635,-1.419 -1.419,-1.419l-10.54,0c-0.783,0 -1.419,0.636 -1.419,1.419l0,2.838Z"/><path d="M85.697,142.999c-0.784,-0 -1.419,0.636 -1.419,1.419l-0,10.632c-0,0.783 0.635,1.419 1.419,1.419l2.838,-0c0.783,-0 1.419,-0.636 1.419,-1.419l-0,-10.632c-0,-0.783 -0.636,-1.419 -1.419,-1.419l-2.838,-0Z" style="fill:#00b8ef;"/><path d="M107.614,61.698c0.783,0 1.419,-0.635 1.419,-1.419l0,-10.632c0,-0.783 -0.636,-1.419 -1.419,-1.419l-2.838,0c-0.783,0 -1.419,0.636 -1.419,1.419l0,10.632c0,0.784 0.636,1.419 1.419,1.419l2.838,0Z" style="fill:#00b8ef;"/><path d="M89.935,159.916c-0.783,-0 -1.419,0.635 -1.419,1.419l-0,10.252c-0,0.783 0.636,1.419 1.419,1.419l2.838,0c0.783,0 1.419,-0.636 1.419,-1.419l-0,-10.252c-0,-0.784 -0.636,-1.419 -1.419,-1.419l-2.838,-0Z" style="fill:#ff7800;"/><path d="M103.376,44.782c0.783,-0 1.419,-0.636 1.419,-1.419l0,-10.253c0,-0.783 -0.636,-1.419 -1.419,-1.419l-2.838,0c-0.783,0 -1.419,0.636 -1.419,1.419l-0,10.253c-0,0.783 0.636,1.419 1.419,1.419l2.838,-0Z" style="fill:#ff7800;"/><path d="M90.806,120.99l0,39.747l1.095,0l0,-39.747l-1.095,-0Z" style="fill:#ff7800;"/><path d="M102.504,83.708l0,-39.748l-1.094,0l-0,39.748l1.094,-0Z" style="fill:#ff7800;"/><rect x="87.96" y="120.442" width="3.941" height="1.095" style="fill:#ff7800;"/><rect x="101.41" y="83.16" width="3.941" height="1.095" style="fill:#ff7800;"/><path d="M84.55,120.99c-0,-1.492 1.211,-2.702 2.702,-2.702c1.491,-0 2.702,1.21 2.702,2.702c-0,1.491 -1.211,2.702 -2.702,2.702c-1.491,-0 -2.702,-1.211 -2.702,-2.702Z" style="fill:#ff7800;"/><path d="M108.761,83.708c0,1.491 -1.211,2.702 -2.702,2.702c-1.491,-0 -2.702,-1.211 -2.702,-2.702c0,-1.492 1.211,-2.702 2.702,-2.702c1.491,-0 2.702,1.21 2.702,2.702Z" style="fill:#ff7800;"/><g transform="matrix(6.12323e-17,-1,1,6.12323e-17,-750.185,36.4517)"><g transform="matrix(5.44055,0,0,5.44055,-128.188,843.545)"></g><text x="-135.37px" y="843.545px" style="font-family:'Teko-Regular', 'Teko';font-size:5.441px;">5: Tx</text></g><g transform="matrix(6.12323e-17,1,-1,6.12323e-17,361.557,-738.799)"><g transform="matrix(5.44055,0,0,5.44055,778.856,261.605)"></g><text x="771.674px" y="261.605px" style="font-family:'Teko-Regular', 'Teko';font-size:5.441px;">5: Tx</text></g><path d="M98.425,121.537c-0.253,1.229 -1.342,2.155 -2.646,2.155c-1.491,-0 -2.702,-1.211 -2.702,-2.702c-0,-1.492 1.211,-2.702 2.702,-2.702c1.304,-0 2.393,0.925 2.646,2.154l2.003,0l0,39.474l0.872,-0c0.783,-0 1.419,0.635 1.419,1.419l-0,10.252c-0,0.783 -0.636,1.419 -1.419,1.419l-2.838,0c-0.783,0 -1.419,-0.636 -1.419,-1.419l-0,-10.252c-0,-0.784 0.636,-1.419 1.419,-1.419l0.871,-0l0,-38.379l-0.908,0Z" style="stroke:#fff;stroke-width:0.42px;"/><path d="M94.886,83.16c0.253,-1.229 1.342,-2.154 2.646,-2.154c1.491,-0 2.702,1.21 2.702,2.702c0,1.491 -1.211,2.702 -2.702,2.702c-1.304,-0 -2.393,-0.926 -2.646,-2.155l-2.003,-0l-0,-39.473l-0.872,-0c-0.783,-0 -1.419,-0.636 -1.419,-1.419l-0,-10.253c-0,-0.783 0.636,-1.419 1.419,-1.419l2.838,0c0.783,0 1.419,0.636 1.419,1.419l0,10.253c0,0.783 -0.636,1.419 -1.419,1.419l-0.872,-0l0,38.378l0.909,0Z" style="stroke:#fff;stroke-width:0.42px;"/><g transform="matrix(6.12323e-17,-1,1,6.12323e-17,-741.658,44.9787)"><g transform="matrix(5.44055,0,0,5.44055,-116.674,843.545)"></g><text x="-126.843px" y="843.545px" style="font-family:'Teko-Regular', 'Teko';font-size:5.441px;fill:#fff;">3: GND</text></g><g transform="matrix(6.12323e-17,1,-1,6.12323e-17,353.03,-730.272)"><g transform="matrix(5.44055,0,0,5.44055,773.316,261.605)"></g><text x="763.147px" y="261.605px" style="font-family:'Teko-Regular', 'Teko';font-size:5.441px;fill:#fff;">3: GND</text></g><path d="M107.196,121.537c-0.253,1.229 -1.343,2.155 -2.647,2.155c-1.491,-0 -2.702,-1.211 -2.702,-2.702c0,-1.492 1.211,-2.702 2.702,-2.702c1.304,-0 2.394,0.925 2.647,2.154l2.003,0l-0,39.474l0.871,-0c0.784,-0 1.419,0.635 1.419,1.419l0,10.252c0,0.783 -0.635,1.419 -1.419,1.419l-2.838,0c-0.783,0 -1.419,-0.636 -1.419,-1.419l0,-10.252c0,-0.784 0.636,-1.419 1.419,-1.419l0.872,-0l-0,-38.379l-0.908,0Z" style="fill:#fff;stroke:#000;stroke-width:0.42px;"/><path d="M86.115,83.16c0.253,-1.229 1.343,-2.154 2.647,-2.154c1.491,-0 2.702,1.21 2.702,2.702c-0,1.491 -1.211,2.702 -2.702,2.702c-1.304,-0 -2.394,-0.926 -2.647,-2.155l-2.003,-0l0,-39.473l-0.871,-0c-0.784,-0 -1.419,-0.636 -1.419,-1.419l-0,-10.253c-0,-0.783 0.635,-1.419 1.419,-1.419l2.838,0c0.783,0 1.419,0.636 1.419,1.419l-0,10.253c-0,0.783 -0.636,1.419 -1.419,1.419l-0.872,-0l-0,38.378l0.908,0Z" style="fill:#fff;stroke:#161a1b;stroke-width:0.42px;"/><g transform="matrix(6.12323e-17,-1,1,6.12323e-17,-732.887,53.7492)"><g transform="matrix(5.44055,0,0,5.44055,-107.491,843.545)"></g><text x="-118.072px" y="843.545px" style="font-family:'Teko-Regular', 'Teko';font-size:5.441px;">1: 0-9v</text></g><g transform="matrix(6.12323e-17,1,-1,6.12323e-17,344.259,-721.501)"><g transform="matrix(5.44055,0,0,5.44055,764.959,261.605)"></g><text x="754.377px" y="261.605px" style="font-family:'Teko-Regular', 'Teko';font-size:5.441px;">1: 0-9v</text></g><path d="M99.021,61.778c0.783,-0 1.419,-0.636 1.419,-1.42l0,-10.882c0,-0.783 -0.636,-1.419 -1.419,-1.419l-2.838,0c-0.783,0 -1.419,0.636 -1.419,1.419l-0,10.882c-0,0.784 0.636,1.42 1.419,1.42l2.838,-0Z" style="fill:#f00;"/><path d="M27.043,120.97c-0,-0.783 -0.636,-1.419 -1.419,-1.419l-19.777,-0c-0.783,-0 -1.419,0.636 -1.419,1.419l-0,2.838c-0,0.783 0.636,1.419 1.419,1.419l19.777,0c0.783,0 1.419,-0.636 1.419,-1.419l-0,-2.838Z" style="fill:#ff7800;"/><path d="M27.043,114.121c-0,-0.784 -0.636,-1.419 -1.419,-1.419l-19.777,-0c-0.783,-0 -1.419,0.635 -1.419,1.419l-0,2.838c-0,0.783 0.636,1.419 1.419,1.419l19.777,-0c0.783,-0 1.419,-0.636 1.419,-1.419l-0,-2.838Z" style="fill:#00b8ef;"/><g transform="matrix(5.44055,0,0,5.44055,173.357,131.858)"></g><text x="168.074px" y="131.858px" style="font-family:'Teko-Regular', 'Teko';font-size:5.441px;fill:#fff;">4v7</text><g transform="matrix(5.44055,0,0,5.44055,11.6574,124.395)"></g><text x="8.11px" y="124.395px" style="font-family:'Teko-Regular', 'Teko';font-size:5.441px;">Tx</text><g transform="matrix(5.44055,0,0,5.44055,12.1253,117.546)"></g><text x="8.11px" y="117.546px" style="font-family:'Teko-Regular', 'Teko';font-size:5.441px;">Rx</text><rect x="141.759" y="136.299" width="24.418" height="1.095"/><path d="M86.705,129.224l-0,24.418l1.094,0l0,-24.418l-1.094,-0Z" style="fill:#00b8ef;"/><path d="M106.606,75.473l0,-24.418l-1.094,0l-0,24.418l1.094,0Z" style="fill:#00b8ef;"/><path d="M98.149,73.987l0,-24.419l-1.094,0l-0,24.419l1.094,-0Z" style="fill:#f00;"/><rect x="25.588" y="121.842" width="24.418" height="1.095" style="fill:#ff7800;"/><rect x="25.588" y="114.992" width="24.418" height="1.095" style="fill:#00b8ef;"/><circle cx="140.521" cy="136.846" r="2.702"/><path d="M84.55,128.017c-0,-1.491 1.211,-2.702 2.702,-2.702c1.491,0 2.702,1.211 2.702,2.702c-0,1.492 -1.211,2.702 -2.702,2.702c-1.491,0 -2.702,-1.21 -2.702,-2.702Z" style="fill:#00b8ef;"/><path d="M108.761,76.68c0,1.491 -1.211,2.702 -2.702,2.702c-1.491,-0 -2.702,-1.211 -2.702,-2.702c0,-1.492 1.211,-2.702 2.702,-2.702c1.491,-0 2.702,1.21 2.702,2.702Z" style="fill:#00b8ef;"/><path d="M95.084,142.749l-0,-12.085c-1.23,-0.253 -2.155,-1.343 -2.155,-2.647c0,-1.491 1.211,-2.702 2.702,-2.702c1.491,0 2.702,1.211 2.702,2.702c0,1.304 -0.925,2.394 -2.155,2.647l0,12.085l0.872,-0c0.783,-0 1.419,0.635 1.419,1.419l0,10.882c0,0.783 -0.636,1.419 -1.419,1.419l-2.838,-0c-0.783,-0 -1.419,-0.636 -1.419,-1.419l-0,-10.882c-0,-0.784 0.636,-1.419 1.419,-1.419l0.872,-0Z" style="fill:#f00;stroke:#63ee0d;stroke-width:0.48px;"/><path d="M100.304,76.509c0,1.491 -1.211,2.702 -2.702,2.702c-1.491,-0 -2.702,-1.211 -2.702,-2.702c0,-1.492 1.211,-2.702 2.702,-2.702c1.491,-0 2.702,1.21 2.702,2.702Z" style="fill:#f00;"/><path d="M103.854,130.664c-1.229,-0.253 -2.154,-1.343 -2.154,-2.647c-0,-1.491 1.21,-2.702 2.702,-2.702c1.491,0 2.702,1.211 2.702,2.702c-0,1.304 -0.926,2.394 -2.155,2.647l-0,12.085l0.872,-0c0.783,-0 1.419,0.635 1.419,1.419l-0,10.882c-0,0.783 -0.636,1.419 -1.419,1.419l-2.839,-0c-0.783,-0 -1.419,-0.636 -1.419,-1.419l0,-10.882c0,-0.784 0.636,-1.419 1.419,-1.419l0.872,-0l0,-12.085Z" style="fill:#808080;"/><path d="M89.457,74.033c1.229,0.254 2.154,1.343 2.154,2.647c0,1.491 -1.21,2.702 -2.702,2.702c-1.491,-0 -2.702,-1.211 -2.702,-2.702c0,-1.304 0.926,-2.393 2.155,-2.647l0,-12.084l-0.872,-0c-0.783,-0 -1.419,-0.636 -1.419,-1.419l0,-10.883c0,-0.783 0.636,-1.419 1.419,-1.419l2.838,0c0.784,0 1.42,0.636 1.42,1.419l-0,10.883c-0,0.783 -0.636,1.419 -1.42,1.419l-0.871,-0l-0,12.084Z" style="fill:#808080;"/><circle cx="51.243" cy="122.389" r="2.702" style="fill:#ff7800;"/><circle cx="51.243" cy="115.54" r="2.702" style="fill:#00b8ef;"/><circle cx="51.243" cy="108.904" r="2.702"/><path d="M51.243,106.202c1.492,0 2.702,1.211 2.702,2.702c0,1.492 -1.21,2.702 -2.702,2.702c-1.491,0 -2.702,-1.21 -2.702,-2.702c0,-1.491 1.211,-2.702 2.702,-2.702Zm0,4c0.717,0 1.298,-0.581 1.298,-1.298c0,-0.716 -0.581,-1.298 -1.298,-1.298c-0.716,0 -1.298,0.582 -1.298,1.298c0,0.717 0.582,1.298 1.298,1.298Z" style="fill:#a3a3a3;"/><circle cx="140.496" cy="108.904" r="2.702"/><path d="M140.496,106.202c1.491,0 2.702,1.211 2.702,2.702c0,1.492 -1.211,2.702 -2.702,2.702c-1.491,0 -2.702,-1.21 -2.702,-2.702c-0,-1.491 1.211,-2.702 2.702,-2.702Zm-0,4c0.716,0 1.298,-0.581 1.298,-1.298c-0,-0.716 -0.582,-1.298 -1.298,-1.298c-0.716,0 -1.298,0.582 -1.298,1.298c0,0.717 0.582,1.298 1.298,1.298Z" style="fill:#a3a3a3;"/><circle cx="51.243" cy="129.352" r="2.702"/><path d="M51.243,126.65c1.492,0 2.702,1.211 2.702,2.702c0,1.492 -1.21,2.702 -2.702,2.702c-1.491,0 -2.702,-1.21 -2.702,-2.702c0,-1.491 1.211,-2.702 2.702,-2.702Zm0,4c0.717,0 1.298,-0.581 1.298,-1.298c0,-0.716 -0.581,-1.298 -1.298,-1.298c-0.716,0 -1.298,0.582 -1.298,1.298c0,0.717 0.582,1.298 1.298,1.298Z" style="fill:#a3a3a3;"/><circle cx="51.243" cy="101.9" r="2.702"/><path d="M51.243,99.198c1.492,0 2.702,1.211 2.702,2.702c0,1.491 -1.21,2.702 -2.702,2.702c-1.491,0 -2.702,-1.211 -2.702,-2.702c0,-1.491 1.211,-2.702 2.702,-2.702Zm0,4c0.717,0 1.298,-0.581 1.298,-1.298c0,-0.716 -0.581,-1.298 -1.298,-1.298c-0.716,0 -1.298,0.582 -1.298,1.298c0,0.717 0.582,1.298 1.298,1.298Z" style="fill:#a3a3a3;"/><circle cx="140.496" cy="101.9" r="2.702"/><path d="M140.496,99.198c1.491,0 2.702,1.211 2.702,2.702c0,1.491 -1.211,2.702 -2.702,2.702c-1.491,0 -2.702,-1.211 -2.702,-2.702c-0,-1.491 1.211,-2.702 2.702,-2.702Zm-0,4c0.716,0 1.298,-0.581 1.298,-1.298c-0,-0.716 -0.582,-1.298 -1.298,-1.298c-0.716,0 -1.298,0.582 -1.298,1.298c0,0.717 0.582,1.298 1.298,1.298Z" style="fill:#a3a3a3;"/><circle cx="51.243" cy="94.919" r="2.702"/><path d="M51.243,92.217c1.492,0 2.702,1.211 2.702,2.702c0,1.492 -1.21,2.702 -2.702,2.702c-1.491,0 -2.702,-1.21 -2.702,-2.702c0,-1.491 1.211,-2.702 2.702,-2.702Zm0,4c0.717,0 1.298,-0.581 1.298,-1.298c0,-0.716 -0.581,-1.298 -1.298,-1.298c-0.716,0 -1.298,0.582 -1.298,1.298c0,0.717 0.582,1.298 1.298,1.298Z" style="fill:#a3a3a3;"/><circle cx="140.496" cy="94.919" r="2.702"/><path d="M140.496,92.217c1.491,0 2.702,1.211 2.702,2.702c0,1.492 -1.211,2.702 -2.702,2.702c-1.491,0 -2.702,-1.21 -2.702,-2.702c-0,-1.491 1.211,-2.702 2.702,-2.702Zm-0,4c0.716,0 1.298,-0.581 1.298,-1.298c-0,-0.716 -0.582,-1.298 -1.298,-1.298c-0.716,0 -1.298,0.582 -1.298,1.298c0,0.717 0.582,1.298 1.298,1.298Z" style="fill:#a3a3a3;"/><circle cx="51.243" cy="88.149" r="2.702"/><path d="M51.243,85.447c1.492,-0 2.702,1.211 2.702,2.702c0,1.491 -1.21,2.702 -2.702,2.702c-1.491,-0 -2.702,-1.211 -2.702,-2.702c0,-1.491 1.211,-2.702 2.702,-2.702Zm0,4c0.717,-0 1.298,-0.582 1.298,-1.298c0,-0.717 -0.581,-1.298 -1.298,-1.298c-0.716,-0 -1.298,0.581 -1.298,1.298c0,0.716 0.582,1.298 1.298,1.298Z" style="fill:#a3a3a3;"/><circle cx="140.496" cy="88.149" r="2.702"/><path d="M140.496,85.447c1.491,-0 2.702,1.211 2.702,2.702c0,1.491 -1.211,2.702 -2.702,2.702c-1.491,-0 -2.702,-1.211 -2.702,-2.702c-0,-1.491 1.211,-2.702 2.702,-2.702Zm-0,4c0.716,-0 1.298,-0.582 1.298,-1.298c-0,-0.717 -0.582,-1.298 -1.298,-1.298c-0.716,-0 -1.298,0.581 -1.298,1.298c0,0.716 0.582,1.298 1.298,1.298Z" style="fill:#a3a3a3;"/><g transform="matrix(6.12323e-17,-1,1,6.12323e-17,-736.728,15.0077)"><g transform="matrix(5.44055,0,0,5.44055,-131.584,826.094)"></g><text x="-139.364px" y="826.094px" style="font-family:'Teko-Regular', 'Teko';font-size:5.441px;">6: Rx</text></g><g transform="matrix(6.12323e-17,1,-1,6.12323e-17,383,-725.342)"><g transform="matrix(5.44055,0,0,5.44055,783.448,279.055)"></g><text x="775.668px" y="279.055px" style="font-family:'Teko-Regular', 'Teko';font-size:5.441px;">6: Rx</text></g><g transform="matrix(6.12323e-17,-1,1,6.12323e-17,-728.707,23.5278)"><g transform="matrix(5.44055,0,0,5.44055,-122.148,826.344)"></g><text x="-131.093px" y="826.344px" style="font-family:'Teko-Regular', 'Teko';font-size:5.441px;fill:#fff;">4: 4v7</text></g><g transform="matrix(6.12323e-17,1,-1,6.12323e-17,374.231,-717.414)"><g transform="matrix(5.44055,0,0,5.44055,776.264,278.635)"></g><text x="767.319px" y="278.635px" style="font-family:'Teko-Regular', 'Teko';font-size:5.441px;fill:#fff;">4: 4v7</text></g><g transform="matrix(6.12323e-17,1,-1,6.12323e-17,355.967,-699.149)"><g transform="matrix(5.44055,0,0,5.44055,753.772,278.635)"></g><text x="749.844px" y="278.635px" style="font-family:'Teko-Regular', 'Teko';font-size:5.441px;fill:#fff;">5V</text></g><g transform="matrix(6.12323e-17,-1,1,6.12323e-17,-719.936,32.2982)"><g transform="matrix(5.44055,0,0,5.44055,-111.234,826.344)"></g><text x="-122.322px" y="826.344px" style="font-family:'Teko-Regular', 'Teko';font-size:5.441px;">2: 0-9v</text></g><g transform="matrix(6.12323e-17,1,-1,6.12323e-17,365.71,-708.55)"><g transform="matrix(5.44055,0,0,5.44055,769.714,278.806)"></g><text x="758.627px" y="278.806px" style="font-family:'Teko-Regular', 'Teko';font-size:5.441px;">2: 0-9v</text></g><g transform="matrix(5.44055,0,0,5.44055,174.258,138.852)"></g><text x="167.707px" y="138.852px" style="font-family:'Teko-Regular', 'Teko';font-size:5.441px;fill:#fff;">GND</text><g transform="matrix(5.44055,0,0,5.44055,173.987,78.6736)"></g><text x="156.223px" y="78.674px" style="font-family:'Teko-Regular', 'Teko';font-size:5.441px;">Header 2x3</text><circle cx="76.74" cy="109.013" r="4.268" style="fill:#c1c1c1;stroke:#c1c1c1;stroke-width:0.85px;"/><circle cx="116.146" cy="109.013" r="4.268" style="fill:#c1c1c1;stroke:#c1c1c1;stroke-width:0.85px;"/><path d="M113.993,76.854l38.65,-0" style="fill:none;stroke:#000;stroke-width:1.4px;"/><g transform="matrix(16.1632,0,0,16.1632,164.357,22.4383)"></g><text x="30.623px" y="22.438px" style="font-family:'Teko-Regular', 'Teko';font-size:16.163px;">ev3-openmv breakout board</text></svg>